<?xml version="1.0" encoding="utf-8"?>
<!-- Generator: Adobe Illustrator 24.1.0, SVG Export Plug-In . SVG Version: 6.00 Build 0)  -->
<svg version="1.1" id="Layer_1" xmlns="http://www.w3.org/2000/svg" xmlns:xlink="http://www.w3.org/1999/xlink" x="0px" y="0px"
	 viewBox="0 0 250 67" style="enable-background:new 0 0 250 67;" xml:space="preserve">
<style type="text/css">
	.st0{fill:#00A284;}
	.st1{fill:#231916;}
</style>
<g>
	<path class="st0" d="M165.97,0.81c-2.35-0.98-5.7-0.16-7.63,1.87c-1.07,1.12-1.89,2.11-2.78,3.7c-0.38-1.12-1.02-1.98-1.9-2.55
		c-2.01-1.29-4.35-1.12-5.43-0.69c-1.04,0.41-1.66,1.14-1.63,1.9c0.02,0.59,0.45,1.07,1.15,1.28c1.84,0.57,3.07,1.13,4.13,1.89
		c1.42,1.02,0.61,3.92-0.28,5.61c-3.98,6.84-7.52,13.93-10.54,21.06c-0.21-0.47-0.39-0.79-0.4-0.81c-1.41-2.19-3.41-3.16-6.5-3.16
		c-9.92,0-19.67,13.66-19.67,27.57c0,5.08,3.11,8.11,8.32,8.11c4.24,0,7.74-2.1,10.18-6.08c-0.14,0.9-0.19,1.46-0.19,2.08
		c0,2.46,1.32,3.99,3.45,3.99c2.64,0,5.33-2.59,9.6-9.24l0.22-0.34l-2.17-1.48l-0.23,0.36c-2.85,4.43-4.96,6.43-5.53,6.43
		c-0.02-0.01-0.07-0.1-0.07-0.27l0-0.17c0-0.14,0-0.27,0-0.42l0.01-0.03c6.45-27.46,14.98-43.59,18.34-49.25
		c2.93-4.44,6.22-7.12,9.52-7.76c0.94-0.18,1.62-0.81,1.7-1.57C167.72,2.06,167.1,1.28,165.97,0.81z M138.35,36.46
		c0,2.61-1.69,9.61-3.62,14.99c-2.85,7.75-6.42,11.69-10.62,11.69c-2.58,0-3.77-1.22-3.77-3.84c0-3.66,2.32-12.79,4.28-16.84
		c2.95-6.03,6.3-9.09,9.96-9.09C136.97,33.36,138.35,34.49,138.35,36.46z"/>
	<g>
		<path class="st1" d="M32.7,16.95c5.58,0,8.32,2.61,11.3,10.74l0.14,0.38l2.78-0.99l-1.24-12.88l-0.57,0.35
			c-1.57,0.98-2.78,1.42-3.9,1.42c-0.38,0-0.73,0-1.01-0.11c-2.98-1.04-4.22-1.37-7.57-1.37C16.58,14.5,2.5,31.23,2.5,50.31
			c0,9.74,6.76,16.29,16.83,16.29c2.96,0,4.64-0.31,7.84-1.44c2.29-0.79,4.29-1.19,5.94-1.19c0.51,0,0.93,0.04,1.47,0.09l0.87,0.07
			l4.01-14.52c0.88-3.16,2.79-4.7,5.82-4.7h0.85l0.71-2.45H29.35l-0.71,2.45h1.09c2.09,0,3.44,0.9,3.44,2.29
			c0,0.79-0.1,1.46-0.32,2.18l-1.69,6.01c-1.44,5.09-5.48,8.01-11.09,8.01c-7.33,0-10.46-3.27-10.46-10.93
			c0-6.21,1.88-13.53,5.43-21.17C19.54,21.64,25.32,16.95,32.7,16.95z"/>
		<path class="st1" d="M82.07,31.93h-5.26l-0.84,1.9c-1.75-2.17-3.45-2.92-6.59-2.92c-10.14,0-21.69,14.87-21.69,27.91
			c0,4.8,3.19,7.78,8.32,7.78c3.74,0,7.14-1.86,10.11-5.53c-0.09,0.52-0.12,1.01-0.12,1.54c0,2.43,1.54,3.99,3.93,3.99
			c2.48,0,5.33-2.43,8.25-7.01l0.49-0.77c0.33-0.52,0.66-1.04,0.92-1.45l0.23-0.34l-2.18-1.49l-0.3,0.47
			c-3.46,5.5-5.03,6.32-5.66,6.32c-0.18,0-0.26-0.08-0.26-0.26c0-0.74,2.61-9.06,4.84-14.92L82.07,31.93z M56.95,63.34
			c-2.33,0-3.37-1.21-3.37-3.91c0-11.21,9.28-26.07,16.27-26.07c2.33,0,3.84,1.4,3.84,3.57c0,2.29-2.68,9.79-5.97,16.71
			C64.67,60.08,61.05,63.34,56.95,63.34z"/>
		<path class="st1" d="M113.09,30.98c-2.68,0-8.18,5.85-14.16,15.03c1.63-4.76,2.48-8.62,2.48-11.24c0-2.3-1.46-3.79-3.72-3.79
			c-2.39,0-5.37,2.56-8.19,7.02c-0.23,0.38-0.47,0.73-0.7,1.09c-0.29,0.43-0.53,0.81-0.73,1.16l-0.19,0.35l2.24,1.37l0.55-0.89
			c3.21-5.12,4.71-5.88,5.32-5.88c0.08,0,0.33,0,0.33,0.4c0,2.4-5.99,21.38-9.29,29.43l-0.23,0.57h5.69l0.1-0.26
			c7.18-17.75,13.21-26.27,19.56-27.65c2.95-0.59,4.05-1.6,4.05-3.72C116.21,32.18,114.95,30.98,113.09,30.98z"/>
		<path class="st1" d="M177.26,36.6c0-3.46-2.28-5.62-5.95-5.62c-9.48,0-18.79,12.45-18.79,25.14c0,6.27,3.29,10.48,8.18,10.48
			c4.25,0,8-2.47,13.82-9.13l0.3-0.34l-2.07-1.48l-0.25,0.25v0c-0.24,0.24-0.42,0.47-0.63,0.74l-0.12,0.16
			c-3.91,4.38-6.93,6.41-9.49,6.41c-2.57,0-3.77-1.63-3.77-5.13c0-1.14,0.15-2.35,0.55-4.6C170.96,50.22,177.26,44.38,177.26,36.6z
			 M172.86,36.19c0,6.75-4.89,11.97-13.43,14.36c2.26-10.63,6.29-16.71,11.08-16.71C172.09,33.84,172.86,34.61,172.86,36.19z"/>
		<path class="st1" d="M214.43,55.97c-2.76,4.34-5.01,6.36-5.66,6.36c-0.24,0-0.4-0.15-0.4-0.4c0-0.2,0.18-1.08,0.32-1.49
			l7.09-21.07c0.42-1.19,0.63-2.26,0.63-3.18c0-2.87-2.7-5.21-6.02-5.21c-3.34,0-5.5,1.74-11,8.88c-1.76,2.29-4.42,6.14-6.25,8.93
			c2.29-6.81,3.75-12.31,3.75-14.22c0-2.15-1.5-3.59-3.72-3.59c-2.47,0-5.4,2.49-8.23,6.99c-0.1,0.13-0.29,0.44-0.53,0.83l0.16,0.1
			l-0.18-0.05c-0.28,0.45-0.62,1.01-0.87,1.37l-0.25,0.35l2.17,1.38l0.64-0.85c2.9-3.89,4.45-5.91,5.34-5.91
			c0.24,0,0.4,0.15,0.4,0.4c0,0.56-0.78,3.39-2.08,7.58c-0.27,0.85-0.53,1.7-0.78,2.51l-0.02,0.05c-0.55,1.79-1.08,3.48-1.49,4.59
			c-1.67,4.53-3.46,9.45-5.27,14.74l-0.19,0.55h5.71l0.11-0.24c7.7-16.87,17.12-30.09,21.44-30.09c1.11,0,1.88,0.69,1.88,1.68
			c0,0.49-0.06,0.72-0.32,1.49l-7.36,21.21c-0.26,0.72-0.43,1.89-0.43,2.98c0,2.39,1.61,3.99,3.99,3.99c2.74,0,5.36-2.51,9.67-9.24
			l0.23-0.36l-2.26-1.38L214.43,55.97z"/>
		<path class="st1" d="M238.37,30.98c-6.57,0-11.15,4.06-11.15,9.87c0,4.64,1.42,6.56,8.95,12.09c2.25,1.61,2.93,2.65,2.93,4.46
			c0,3.35-2.91,6.07-6.48,6.07c-2.21,0-3.77-0.72-4.28-1.97c-0.19-0.46-0.36-0.87-0.5-1.24l-0.03-0.07
			c-0.99-2.47-1.26-3.14-3.23-3.14c-1.47,0-3.18,0.82-3.18,3.12c0,3.42,4.77,6.43,10.21,6.43c7.01,0,12.1-4.52,12.1-10.75
			c0-4.12-1.18-5.85-6.66-9.73c-4.37-3.11-5.43-4.49-5.43-7.03c0-3.03,2.67-5.4,6.07-5.4c2.24,0,3.22,0.8,3.72,3.06
			c0.52,2.14,1.44,3.02,3.17,3.02c1.77,0,2.91-1.25,2.91-3.18C247.5,33.56,243.32,30.98,238.37,30.98z"/>
	</g>
</g>
</svg>
