<?xml version="1.0" encoding="utf-8"?>
<!-- Generator: Adobe Illustrator 24.1.0, SVG Export Plug-In . SVG Version: 6.00 Build 0)  -->
<svg version="1.1" id="Ñëîé_1" xmlns="http://www.w3.org/2000/svg" xmlns:xlink="http://www.w3.org/1999/xlink" x="0px" y="0px"
	 viewBox="0 0 303.53 293.8" style="enable-background:new 0 0 303.53 293.8;" xml:space="preserve">
<style type="text/css">
	.st0{fill:#D4ECFF;}
	.st1{fill:#4C4C4C;}
	.st2{fill:#AEB4BA;}
	.st3{fill:#95D359;}
	.st4{fill:#C13D1A;}
	.st5{fill:#DB5126;}
	.st6{fill:#EF602E;}
	.st7{fill:#636363;}
	.st8{fill:#7F7F7F;}
	.st9{fill:#E5E5E5;}
	.st10{fill:#FFFFFF;}
	.st11{fill:#5793CE;}
	.st12{fill:#173D7A;}
	.st13{fill:#396CAA;}
	.st14{fill:#00A281;}
	.st15{fill:#FFC2B0;}
	.st16{fill:#EA9C92;}
	.st17{fill:#E0E0E0;}
</style>
<g>
	<g>
		<g>
			<polygon class="st0" points="123.73,139.28 138.34,130.85 123.73,122.42 109.13,130.85 109.13,130.85 94.52,139.28 
				109.13,147.72 109.13,147.72 123.73,156.15 138.34,147.72 123.73,139.28 			"/>
			<polygon points="123.73,118.28 123.73,56.44 138.34,48 138.34,109.85 			"/>
			<polygon class="st1" points="123.73,56.44 109.13,48 109.13,109.85 123.73,118.28 			"/>
			<polygon class="st2" points="138.34,48 123.73,39.57 109.13,48 123.73,56.44 			"/>
		</g>
		<g>
			<polygon class="st3" points="138.34,121.09 123.73,112.66 123.73,118.28 138.34,126.71 			"/>
		</g>
		<g>
			<polygon class="st4" points="109.13,126.71 109.13,81.74 123.73,73.3 123.73,118.28 			"/>
			<polygon class="st5" points="109.13,81.74 94.52,73.3 94.52,118.28 109.13,126.71 			"/>
			<polygon class="st6" points="123.73,73.3 109.13,64.87 94.52,73.3 109.13,81.74 			"/>
			<polygon class="st1" points="109.13,126.71 109.13,81.74 123.73,73.3 123.73,118.28 			"/>
			<polygon class="st7" points="109.13,81.74 94.52,73.3 94.52,118.28 109.13,126.71 			"/>
			<polygon class="st2" points="123.73,73.3 109.13,64.87 94.52,73.3 109.13,81.74 			"/>
		</g>
		<g>
			<polygon points="123.73,135.14 123.73,109.85 138.34,101.41 138.34,126.71 			"/>
			<polygon class="st1" points="123.73,109.85 109.13,101.41 109.13,126.71 123.73,135.14 			"/>
			<polygon class="st2" points="138.34,101.41 123.73,92.98 109.13,101.41 123.73,109.85 			"/>
		</g>
	</g>
	<g>
		<g>
			<path class="st0" d="M185.09,292.59L74.78,228.9c-3.12-1.8-2.73-4.95,0.87-7.03l75.11-43.35c3.6-2.08,9.05-2.31,12.17-0.5
				l110.31,63.69c3.12,1.8,2.73,4.95-0.87,7.03l-75.11,43.35C193.66,294.16,188.21,294.39,185.09,292.59z"/>
			<g>
				<path class="st8" d="M277.33,116.42L165.2,51.74c-1.44-0.83-2.77-0.96-3.84-0.52l0-0.01l-0.18,0.09
					c-0.01,0.01-0.03,0.01-0.04,0.02l-3.65,1.72l3.96,1.97c0,0.07-0.01,0.14-0.01,0.22l0.03,92.1c0,4.61,2.85,9.99,6.37,12.02
					l109.14,62.96l0.62,5.14l3.99-1.9c1.31-0.77,2.14-2.51,2.14-5l-0.03-92.1C283.7,123.83,280.85,118.45,277.33,116.42z"/>
				<path class="st8" d="M277.33,116.42L165.2,51.74c-1.44-0.83-2.77-0.96-3.84-0.52l0-0.01l-0.18,0.09
					c-0.01,0.01-0.03,0.01-0.04,0.02l-3.65,1.72l3.96,1.97c0,0.07-0.01,0.14-0.01,0.22l0.02,60.7l51.03,40.32l69.29-34.87
					C280.63,119.24,279.06,117.42,277.33,116.42z"/>
				<path class="st8" d="M279.2,117.87l-10.99,4.62l8.3,6.39l6.93-2.95C282.84,122.91,281.24,119.86,279.2,117.87z"/>
				<path class="st9" d="M273.68,226.95l-112.13-64.68c-3.52-2.03-6.37-7.41-6.37-12.02l-0.03-92.1c0-4.61,2.85-6.7,6.37-4.67
					l112.13,64.68c3.52,2.03,6.37,7.41,6.37,12.02l0.03,92.1C280.04,226.88,277.19,228.98,273.68,226.95z"/>
				<path class="st10" d="M269.95,220.1l-104.72-60.38c-3.22-1.86-5.83-6.78-5.83-11l-0.03-84.28c0-4.22,2.61-6.13,5.82-4.28
					l104.72,60.38c3.22,1.86,5.83,6.78,5.83,11l0.03,84.28C275.77,220.04,273.17,221.95,269.95,220.1z"/>
				<path class="st10" d="M269.95,220.1l-104.72-60.38c-3.22-1.86-5.83-6.78-5.83-11l-0.03-84.28c0-4.22,2.61-6.13,5.82-4.28
					l104.72,60.38c3.22,1.86,5.83,6.78,5.83,11l0.03,84.28C275.77,220.04,273.17,221.95,269.95,220.1z"/>
			</g>
			<path class="st8" d="M275.35,229.81l-15.08-1.99l-97.34-56.2c-3.12-1.8-8.57-1.58-12.17,0.5l-68.97,39.81l-9.12-1.2v5.17l0.01,0
				c-0.06,1.2,0.62,2.35,2.09,3.2l110.31,63.69c3.12,1.8,8.57,1.58,12.17-0.5l75.11-43.35c2.03-1.17,3.04-2.68,2.98-4.09l0,0V229.81
				z"/>
			<path class="st8" d="M202.22,194.3l-6.92-3.99h-76.03l-37.48,21.63l-9.12-1.2v5.17l0.01,0c-0.06,1.2,0.62,2.35,2.09,3.2
				l110.31,63.69c1.65,0.95,3.95,1.33,6.28,1.18L202.22,194.3z"/>
			<path class="st11" d="M76.72,211.26l-4.05-0.53v5.17l0.01,0c-0.06,1.2,0.62,2.35,2.09,3.2l1.94,1.12V211.26z"/>
			<path class="st8" d="M186.2,283.3c2.96,1.12,7.19,0.88,10.34-0.64v-11.54H186.2V283.3z"/>
			<path class="st9" d="M185.09,277.62L74.78,213.93c-3.12-1.8-2.73-4.95,0.87-7.03l75.11-43.35c3.6-2.08,9.05-2.31,12.17-0.5
				l110.31,63.69c3.12,1.8,2.73,4.95-0.87,7.03l-75.11,43.35C193.66,279.19,188.21,279.42,185.09,277.62z"/>
			<path class="st10" d="M272.37,231.87l-75.11,43.35c-3.6,2.08-9.05,2.31-12.17,0.51L74.78,212.04c-1.02-0.59-1.66-1.33-1.94-2.12
				c-0.49,1.48,0.13,2.97,1.94,4.01l110.31,63.69c3.12,1.8,8.57,1.58,12.17-0.5l75.11-43.35c2.42-1.4,3.39-3.28,2.81-4.91
				C274.83,229.93,273.89,230.99,272.37,231.87z"/>
			<g>
				<path class="st12" d="M121.69,192.85l-4.99-2.88c-0.4-0.23-0.35-0.64,0.11-0.9l5.89-3.4c0.46-0.27,1.16-0.3,1.56-0.06l4.99,2.88
					c0.4,0.23,0.35,0.64-0.11,0.9l-5.89,3.4C122.79,193.05,122.09,193.08,121.69,192.85z"/>
				<path class="st12" d="M129.4,197.3l-4.99-2.88c-0.4-0.23-0.35-0.64,0.11-0.9l5.89-3.4c0.46-0.27,1.16-0.3,1.56-0.06l4.99,2.88
					c0.4,0.23,0.35,0.64-0.11,0.9l-5.89,3.4C130.5,197.5,129.8,197.53,129.4,197.3z"/>
				<path class="st12" d="M137.11,201.75l-4.99-2.88c-0.4-0.23-0.35-0.64,0.11-0.9l5.89-3.4c0.46-0.27,1.16-0.3,1.56-0.06l4.99,2.88
					c0.4,0.23,0.35,0.64-0.11,0.9l-5.89,3.4C138.21,201.95,137.51,201.98,137.11,201.75z"/>
				<path class="st12" d="M147.77,198.07l-4.99-2.88c-0.4-0.23-0.35-0.64,0.11-0.9l4.95-2.86c0.46-0.27,1.16-0.3,1.56-0.06
					l4.99,2.88c0.4,0.23,0.35,0.64-0.11,0.9l-4.95,2.86C148.87,198.27,148.17,198.3,147.77,198.07z"/>
				<path class="st12" d="M155.48,202.52l-4.99-2.88c-0.4-0.23-0.35-0.64,0.11-0.9l4.95-2.86c0.46-0.27,1.16-0.3,1.56-0.06
					l4.99,2.88c0.4,0.23,0.35,0.64-0.11,0.9l-4.95,2.86C156.58,202.72,155.88,202.75,155.48,202.52z"/>
				<path class="st12" d="M163.18,206.97l-4.99-2.88c-0.4-0.23-0.35-0.64,0.11-0.9l4.95-2.86c0.46-0.27,1.16-0.3,1.56-0.06
					l4.99,2.88c0.4,0.23,0.35,0.64-0.11,0.9l-4.95,2.86C164.28,207.17,163.58,207.2,163.18,206.97z"/>
				<path class="st12" d="M170.89,211.42l-4.99-2.88c-0.4-0.23-0.35-0.64,0.11-0.9l4.95-2.86c0.46-0.27,1.16-0.3,1.56-0.06
					l4.99,2.88c0.4,0.23,0.35,0.64-0.11,0.9l-4.95,2.86C171.99,211.62,171.29,211.65,170.89,211.42z"/>
				<path class="st12" d="M178.6,215.87l-4.99-2.88c-0.4-0.23-0.35-0.64,0.11-0.9l4.95-2.86c0.46-0.27,1.16-0.3,1.56-0.06l4.99,2.88
					c0.4,0.23,0.35,0.64-0.11,0.9l-4.95,2.86C179.7,216.07,179,216.1,178.6,215.87z"/>
				<path class="st12" d="M186.31,220.32l-4.99-2.88c-0.4-0.23-0.35-0.64,0.11-0.9l4.95-2.86c0.46-0.27,1.16-0.3,1.56-0.06
					l4.99,2.88c0.4,0.23,0.35,0.64-0.11,0.9l-4.95,2.86C187.41,220.52,186.71,220.55,186.31,220.32z"/>
				<path class="st12" d="M194.01,224.77l-4.99-2.88c-0.4-0.23-0.35-0.64,0.11-0.9l4.95-2.86c0.46-0.27,1.16-0.3,1.56-0.06
					l4.99,2.88c0.4,0.23,0.35,0.64-0.11,0.9l-4.95,2.86C195.11,224.97,194.41,225,194.01,224.77z"/>
				<path class="st12" d="M201.72,229.22l-4.99-2.88c-0.4-0.23-0.35-0.64,0.11-0.9l4.95-2.86c0.46-0.27,1.16-0.3,1.56-0.06
					l4.99,2.88c0.4,0.23,0.35,0.64-0.11,0.9l-4.95,2.86C202.82,229.42,202.12,229.45,201.72,229.22z"/>
				<path d="M209.43,233.67l-4.99-2.88c-0.4-0.23-0.35-0.64,0.11-0.9l4.95-2.86c0.46-0.27,1.16-0.3,1.56-0.06l4.99,2.88
					c0.4,0.23,0.35,0.64-0.11,0.9l-4.95,2.86C210.53,233.87,209.83,233.9,209.43,233.67z"/>
				<path d="M217.14,238.12l-4.99-2.88c-0.4-0.23-0.35-0.64,0.11-0.9l4.95-2.86c0.46-0.27,1.16-0.3,1.56-0.06l4.99,2.88
					c0.4,0.23,0.35,0.64-0.11,0.9l-4.95,2.86C218.24,238.32,217.54,238.35,217.14,238.12z"/>
				<path class="st13" d="M159.12,195.96l-4.99-2.88c-0.4-0.23-0.35-0.64,0.11-0.9l4.95-2.86c0.46-0.27,1.16-0.3,1.56-0.06
					l4.99,2.88c0.4,0.23,0.35,0.64-0.11,0.9l-4.95,2.86C160.23,196.17,159.53,196.19,159.12,195.96z"/>
				<path class="st13" d="M151.3,191.45l-4.99-2.88c-0.4-0.23-0.35-0.64,0.11-0.9l4.95-2.86c0.46-0.27,1.16-0.3,1.56-0.06l4.99,2.88
					c0.4,0.23,0.35,0.64-0.11,0.9l-4.95,2.86C152.4,191.65,151.7,191.68,151.3,191.45z"/>
				<path class="st12" d="M143.47,186.92l-10.75-6.21c-0.4-0.23-0.35-0.64,0.11-0.9l4.95-2.86c0.46-0.27,1.16-0.3,1.56-0.06
					l10.75,6.21c0.4,0.23,0.35,0.64-0.11,0.9l-4.95,2.86C144.57,187.13,143.87,187.15,143.47,186.92z"/>
				<path class="st12" d="M148.94,181.42l-8.72-5.04c-0.4-0.23-0.35-0.64,0.11-0.9l4.95-2.86c0.46-0.27,1.16-0.3,1.56-0.06
					l8.72,5.04c0.4,0.23,0.35,0.64-0.11,0.9l-4.95,2.86C150.04,181.62,149.34,181.65,148.94,181.42z"/>
				<path class="st13" d="M166.83,200.41l-4.99-2.88c-0.4-0.23-0.35-0.64,0.11-0.9l4.95-2.86c0.46-0.27,1.16-0.3,1.56-0.06
					l4.99,2.88c0.4,0.23,0.35,0.64-0.11,0.9l-4.95,2.86C167.93,200.62,167.23,200.64,166.83,200.41z"/>
				<path class="st12" d="M174.54,204.86l-4.99-2.88c-0.4-0.23-0.35-0.64,0.11-0.9l4.95-2.86c0.46-0.27,1.16-0.3,1.56-0.06
					l4.99,2.88c0.4,0.23,0.35,0.64-0.11,0.9l-4.95,2.86C175.64,205.07,174.94,205.1,174.54,204.86z"/>
				<path class="st12" d="M182.25,209.31l-4.99-2.88c-0.4-0.23-0.35-0.64,0.11-0.9l4.95-2.86c0.46-0.27,1.16-0.3,1.56-0.06
					l4.99,2.88c0.4,0.23,0.35,0.64-0.11,0.9l-4.95,2.86C183.35,209.52,182.65,209.55,182.25,209.31z"/>
				<path class="st12" d="M189.96,213.76l-4.99-2.88c-0.4-0.23-0.35-0.64,0.11-0.9l4.95-2.86c0.46-0.27,1.16-0.3,1.56-0.06
					l4.99,2.88c0.4,0.23,0.35,0.64-0.11,0.9l-4.95,2.86C191.06,213.97,190.36,214,189.96,213.76z"/>
				<path class="st12" d="M197.66,218.21l-4.99-2.88c-0.4-0.23-0.35-0.64,0.11-0.9l4.95-2.86c0.46-0.27,1.16-0.3,1.56-0.06
					l4.99,2.88c0.4,0.23,0.35,0.64-0.11,0.9l-4.95,2.86C198.76,218.42,198.06,218.45,197.66,218.21z"/>
				<path class="st12" d="M205.37,222.66l-4.99-2.88c-0.4-0.23-0.35-0.64,0.11-0.9l4.95-2.86c0.46-0.27,1.16-0.3,1.56-0.06
					l4.99,2.88c0.4,0.23,0.35,0.64-0.11,0.9l-4.95,2.86C206.47,222.87,205.77,222.9,205.37,222.66z"/>
				<path d="M213.08,227.11l-4.99-2.88c-0.4-0.23-0.35-0.64,0.11-0.9l4.95-2.86c0.46-0.27,1.16-0.3,1.56-0.06l4.99,2.88
					c0.4,0.23,0.35,0.64-0.11,0.9l-4.95,2.86C214.18,227.32,213.48,227.35,213.08,227.11z"/>
				<path d="M220.79,231.56l-4.99-2.88c-0.4-0.23-0.35-0.64,0.11-0.9l4.95-2.86c0.46-0.27,1.16-0.3,1.56-0.06l4.99,2.88
					c0.4,0.23,0.35,0.64-0.11,0.9l-4.95,2.86C221.89,231.77,221.19,231.8,220.79,231.56z"/>
				<path d="M228.49,236.01l-4.99-2.88c-0.4-0.23-0.35-0.64,0.11-0.9l4.95-2.86c0.46-0.27,1.16-0.3,1.56-0.06l4.99,2.88
					c0.4,0.23,0.35,0.64-0.11,0.9l-4.95,2.86C229.6,236.22,228.9,236.25,228.49,236.01z"/>
				<path d="M242.2,243.93l-10.89-6.29c-0.4-0.23-0.35-0.64,0.11-0.9l4.95-2.86c0.46-0.27,1.16-0.3,1.56-0.06l10.89,6.29
					c0.4,0.23,0.35,0.64-0.11,0.9l-4.95,2.86C243.3,244.13,242.6,244.16,242.2,243.93z"/>
				<path d="M257.2,235.26l-9.19-5.31c-0.4-0.23-0.35-0.64,0.11-0.9l4.95-2.86c0.46-0.27,1.16-0.3,1.56-0.06l9.19,5.31
					c0.4,0.23,0.35,0.64-0.11,0.9l-4.95,2.86C258.3,235.46,257.6,235.49,257.2,235.26z"/>
				<path class="st12" d="M180.33,199.54l-4.99-2.88c-0.4-0.23-0.35-0.64,0.11-0.9l4.95-2.86c0.46-0.27,1.16-0.3,1.56-0.06
					l4.99,2.88c0.4,0.23,0.35,0.64-0.11,0.9l-4.95,2.86C181.43,199.75,180.73,199.77,180.33,199.54z"/>
				<path class="st12" d="M172.43,194.98l-4.99-2.88c-0.4-0.23-0.35-0.64,0.11-0.9l4.95-2.86c0.46-0.27,1.16-0.3,1.56-0.06
					l4.99,2.88c0.4,0.23,0.35,0.64-0.11,0.9l-4.95,2.86C173.53,195.18,172.83,195.21,172.43,194.98z"/>
				<path class="st13" d="M164.53,190.42l-4.99-2.88c-0.4-0.23-0.35-0.64,0.11-0.9l4.95-2.86c0.46-0.27,1.16-0.3,1.56-0.06
					l4.99,2.88c0.4,0.23,0.35,0.64-0.11,0.9l-4.95,2.86C165.63,190.62,164.93,190.65,164.53,190.42z"/>
				<path class="st12" d="M156.63,185.86l-4.99-2.88c-0.4-0.23-0.35-0.64,0.11-0.9l4.95-2.86c0.46-0.27,1.16-0.3,1.56-0.06
					l4.99,2.88c0.4,0.23,0.35,0.64-0.11,0.9l-4.95,2.86C157.73,186.06,157.03,186.09,156.63,185.86z"/>
				<path class="st12" d="M188.04,203.99l-4.99-2.88c-0.4-0.23-0.35-0.64,0.11-0.9l4.95-2.86c0.46-0.27,1.16-0.3,1.56-0.06
					l4.99,2.88c0.4,0.23,0.35,0.64-0.11,0.9l-4.95,2.86C189.14,204.2,188.44,204.22,188.04,203.99z"/>
				<path class="st12" d="M195.75,208.44l-4.99-2.88c-0.4-0.23-0.35-0.64,0.11-0.9l4.95-2.86c0.46-0.27,1.16-0.3,1.56-0.06
					l4.99,2.88c0.4,0.23,0.35,0.64-0.11,0.9l-4.95,2.86C196.85,208.65,196.15,208.67,195.75,208.44z"/>
				<path class="st12" d="M203.45,212.89l-4.99-2.88c-0.4-0.23-0.35-0.64,0.11-0.9l4.95-2.86c0.46-0.27,1.16-0.3,1.56-0.06
					l4.99,2.88c0.4,0.23,0.35,0.64-0.11,0.9l-4.95,2.86C204.55,213.1,203.85,213.12,203.45,212.89z"/>
				<path d="M211.16,217.34l-4.99-2.88c-0.4-0.23-0.35-0.64,0.11-0.9l4.95-2.86c0.46-0.27,1.16-0.3,1.56-0.06l4.99,2.88
					c0.4,0.23,0.35,0.64-0.11,0.9l-4.95,2.86C212.26,217.55,211.56,217.57,211.16,217.34z"/>
				<path d="M218.87,221.79l-4.99-2.88c-0.4-0.23-0.35-0.64,0.11-0.9l4.95-2.86c0.46-0.27,1.16-0.3,1.56-0.06l4.99,2.88
					c0.4,0.23,0.35,0.64-0.11,0.9l-4.95,2.86C219.97,222,219.27,222.02,218.87,221.79z"/>
				<path d="M226.58,226.24l-4.99-2.88c-0.4-0.23-0.35-0.64,0.11-0.9l4.95-2.86c0.46-0.27,1.16-0.3,1.56-0.06l4.99,2.88
					c0.4,0.23,0.35,0.64-0.11,0.9l-4.95,2.86C227.68,226.45,226.98,226.47,226.58,226.24z"/>
				<path d="M234.28,230.69l-4.99-2.88c-0.4-0.23-0.35-0.64,0.11-0.9l4.95-2.86c0.46-0.27,1.16-0.3,1.56-0.06l4.99,2.88
					c0.4,0.23,0.35,0.64-0.11,0.9l-4.95,2.86C235.39,230.9,234.69,230.92,234.28,230.69z"/>
				<path d="M241.99,235.14l-4.99-2.88c-0.4-0.23-0.35-0.64,0.11-0.9l4.95-2.86c0.46-0.27,1.16-0.3,1.56-0.06l4.99,2.88
					c0.4,0.23,0.35,0.64-0.11,0.9l-4.95,2.86C243.09,235.35,242.39,235.37,241.99,235.14z"/>
				<path d="M249.7,239.59l-4.99-2.88c-0.4-0.23-0.35-0.64,0.11-0.9l4.95-2.86c0.46-0.27,1.16-0.3,1.56-0.06l4.99,2.88
					c0.4,0.23,0.35,0.64-0.11,0.9l-4.95,2.86C250.8,239.8,250.1,239.82,249.7,239.59z"/>
				<path class="st12" d="M176.27,188.54l-4.99-2.88c-0.4-0.23-0.35-0.64,0.11-0.9l4.95-2.86c0.46-0.27,1.16-0.3,1.56-0.06
					l4.99,2.88c0.4,0.23,0.35,0.64-0.11,0.9l-4.95,2.86C177.37,188.74,176.67,188.77,176.27,188.54z"/>
				<path class="st12" d="M168.6,184.11l-4.99-2.88c-0.4-0.23-0.35-0.64,0.11-0.9l4.95-2.86c0.46-0.27,1.16-0.3,1.56-0.06l4.99,2.88
					c0.4,0.23,0.35,0.64-0.11,0.9l-4.95,2.86C169.7,184.31,169,184.34,168.6,184.11z"/>
				<path class="st12" d="M160.93,179.68l-4.99-2.88c-0.4-0.23-0.35-0.64,0.11-0.9l4.95-2.86c0.46-0.27,1.16-0.3,1.56-0.06
					l4.99,2.88c0.4,0.23,0.35,0.64-0.11,0.9l-4.95,2.86C162.03,179.88,161.33,179.91,160.93,179.68z"/>
				<path class="st12" d="M153.26,175.25l-4.99-2.88c-0.4-0.23-0.35-0.64,0.11-0.9l4.95-2.86c0.46-0.27,1.16-0.3,1.56-0.06
					l4.99,2.88c0.4,0.23,0.35,0.64-0.11,0.9l-4.95,2.86C154.36,175.45,153.66,175.48,153.26,175.25z"/>
				<path class="st12" d="M161.15,170.7l-4.99-2.88c-0.4-0.23-0.35-0.64,0.11-0.9l1.63-0.94c0.46-0.27,1.16-0.3,1.56-0.06l4.99,2.88
					c0.4,0.23,0.35,0.64-0.11,0.9l-1.63,0.94C162.25,170.9,161.55,170.93,161.15,170.7z"/>
				<path class="st12" d="M171.16,176.48l-4.99-2.88c-0.4-0.23-0.35-0.64,0.11-0.9l1.63-0.94c0.46-0.27,1.16-0.3,1.56-0.06
					l4.99,2.88c0.4,0.23,0.35,0.64-0.11,0.9l-1.63,0.94C172.26,176.68,171.56,176.71,171.16,176.48z"/>
				<path class="st12" d="M178.8,180.89l-4.99-2.88c-0.4-0.23-0.35-0.64,0.11-0.9l1.63-0.94c0.46-0.27,1.16-0.3,1.56-0.06l4.99,2.88
					c0.4,0.23,0.35,0.64-0.11,0.9l-1.63,0.94C179.9,181.09,179.2,181.12,178.8,180.89z"/>
				<path class="st12" d="M186.43,185.3l-4.99-2.88c-0.4-0.23-0.35-0.64,0.11-0.9l1.63-0.94c0.46-0.27,1.16-0.3,1.56-0.06l4.99,2.88
					c0.4,0.23,0.35,0.64-0.11,0.9l-1.63,0.94C187.53,185.5,186.83,185.53,186.43,185.3z"/>
				<path class="st12" d="M194.07,189.71l-4.99-2.88c-0.4-0.23-0.35-0.64,0.11-0.9l1.63-0.94c0.46-0.27,1.16-0.3,1.56-0.06
					l4.99,2.88c0.4,0.23,0.35,0.64-0.11,0.9l-1.63,0.94C195.17,189.91,194.47,189.94,194.07,189.71z"/>
				<path d="M236.71,214.32l-4.99-2.88c-0.4-0.23-0.35-0.64,0.11-0.9l1.63-0.94c0.46-0.27,1.16-0.3,1.56-0.06l4.99,2.88
					c0.4,0.23,0.35,0.64-0.11,0.9l-1.63,0.94C237.81,214.53,237.11,214.55,236.71,214.32z"/>
				<path d="M244.35,218.73l-4.99-2.88c-0.4-0.23-0.35-0.64,0.11-0.9l1.63-0.94c0.46-0.27,1.16-0.3,1.56-0.06l4.99,2.88
					c0.4,0.23,0.35,0.64-0.11,0.9l-1.63,0.94C245.45,218.94,244.75,218.96,244.35,218.73z"/>
				<path d="M251.98,223.14l-4.99-2.88c-0.4-0.23-0.35-0.64,0.11-0.9l1.63-0.94c0.46-0.27,1.16-0.3,1.56-0.06l4.99,2.88
					c0.4,0.23,0.35,0.64-0.11,0.9l-1.63,0.94C253.09,223.34,252.39,223.37,251.98,223.14z"/>
				<path d="M259.62,227.55l-4.99-2.88c-0.4-0.23-0.35-0.64,0.11-0.9l1.63-0.94c0.46-0.27,1.16-0.3,1.56-0.06l4.99,2.88
					c0.4,0.23,0.35,0.64-0.11,0.9l-1.63,0.94C260.72,227.75,260.02,227.78,259.62,227.55z"/>
				<path class="st12" d="M183.98,192.99l-4.99-2.88c-0.4-0.23-0.35-0.64,0.11-0.9l4.95-2.86c0.46-0.27,1.16-0.3,1.56-0.06
					l4.99,2.88c0.4,0.23,0.35,0.64-0.11,0.9l-4.95,2.86C185.08,193.19,184.38,193.22,183.98,192.99z"/>
				<path class="st12" d="M191.69,197.44l-4.99-2.88c-0.4-0.23-0.35-0.64,0.11-0.9l4.95-2.86c0.46-0.27,1.16-0.3,1.56-0.06
					l4.99,2.88c0.4,0.23,0.35,0.64-0.11,0.9l-4.95,2.86C192.79,197.64,192.09,197.67,191.69,197.44z"/>
				<path class="st12" d="M199.39,201.89L194.4,199c-0.4-0.23-0.35-0.64,0.11-0.9l4.95-2.86c0.46-0.27,1.16-0.3,1.56-0.06l4.99,2.88
					c0.4,0.23,0.35,0.64-0.11,0.9l-4.95,2.86C200.5,202.09,199.8,202.12,199.39,201.89z"/>
				<path class="st12" d="M207.1,206.34l-4.99-2.88c-0.4-0.23-0.35-0.64,0.11-0.9l4.95-2.86c0.46-0.27,1.16-0.3,1.56-0.06l4.99,2.88
					c0.4,0.23,0.35,0.64-0.11,0.9l-4.95,2.86C208.2,206.54,207.5,206.57,207.1,206.34z"/>
				<path d="M214.81,210.79l-4.99-2.88c-0.4-0.23-0.35-0.64,0.11-0.9l4.95-2.86c0.46-0.27,1.16-0.3,1.56-0.06l4.99,2.88
					c0.4,0.23,0.35,0.64-0.11,0.9l-4.95,2.86C215.91,210.99,215.21,211.02,214.81,210.79z"/>
				<path d="M222.52,215.24l-4.99-2.88c-0.4-0.23-0.35-0.64,0.11-0.9l4.95-2.86c0.46-0.27,1.16-0.3,1.56-0.06l4.99,2.88
					c0.4,0.23,0.35,0.64-0.11,0.9l-4.95,2.86C223.62,215.44,222.92,215.47,222.52,215.24z"/>
				<path d="M230.23,219.69l-4.99-2.88c-0.4-0.23-0.35-0.64,0.11-0.9l4.95-2.86c0.46-0.27,1.16-0.3,1.56-0.06l4.99,2.88
					c0.4,0.23,0.35,0.64-0.11,0.9l-4.95,2.86C231.33,219.89,230.63,219.92,230.23,219.69z"/>
				<path d="M237.93,224.14l-4.99-2.88c-0.4-0.23-0.35-0.64,0.11-0.9l4.95-2.86c0.46-0.27,1.16-0.3,1.56-0.06l4.99,2.88
					c0.4,0.23,0.35,0.64-0.11,0.9l-4.95,2.86C239.03,224.34,238.33,224.37,237.93,224.14z"/>
				<path d="M245.64,228.59l-4.99-2.88c-0.4-0.23-0.35-0.64,0.11-0.9l4.95-2.86c0.46-0.27,1.16-0.3,1.56-0.06l4.99,2.88
					c0.4,0.23,0.35,0.64-0.11,0.9l-4.95,2.86C246.74,228.79,246.04,228.82,245.64,228.59z"/>
				<path class="st12" d="M139.91,193.54l-14.7-8.49c-0.4-0.23-0.35-0.64,0.11-0.9l4.95-2.86c0.46-0.27,1.16-0.3,1.56-0.06
					l14.7,8.49c0.4,0.23,0.35,0.64-0.11,0.9l-4.95,2.86C141.01,193.74,140.31,193.77,139.91,193.54z"/>
				<path d="M234.6,248.21l-14.7-8.49c-0.4-0.23-0.35-0.64,0.11-0.9l4.95-2.86c0.46-0.27,1.16-0.3,1.56-0.06l14.7,8.49
					c0.4,0.23,0.35,0.64-0.11,0.9l-4.95,2.86C235.71,248.41,235.01,248.44,234.6,248.21z"/>
				<path d="M203.78,240.24l-4.99-2.88c-0.4-0.23-0.35-0.64,0.11-0.9l5.89-3.4c0.46-0.27,1.16-0.3,1.56-0.06l4.99,2.88
					c0.4,0.23,0.35,0.64-0.11,0.9l-5.89,3.4C204.88,240.44,204.18,240.47,203.78,240.24z"/>
				<path class="st12" d="M147.81,207.92l-7.98-4.61c-0.4-0.23-0.35-0.64,0.11-0.9l5.89-3.4c0.46-0.27,1.16-0.3,1.56-0.06l7.98,4.61
					c0.4,0.23,0.35,0.64-0.11,0.9l-5.89,3.4C148.91,208.12,148.21,208.15,147.81,207.92z"/>
				<path class="st12" d="M196.35,235.95l-7.98-4.61c-0.4-0.23-0.35-0.64,0.11-0.9l5.89-3.4c0.46-0.27,1.16-0.3,1.56-0.06l7.98,4.61
					c0.4,0.23,0.35,0.64-0.11,0.9l-5.89,3.4C197.45,236.15,196.75,236.18,196.35,235.95z"/>
				<path class="st12" d="M158.93,214.34l-7.98-4.61c-0.4-0.23-0.35-0.64,0.11-0.9l5.89-3.4c0.46-0.27,1.16-0.3,1.56-0.06l7.98,4.61
					c0.4,0.23,0.35,0.64-0.11,0.9l-5.89,3.4C160.03,214.55,159.33,214.57,158.93,214.34z"/>
				<path class="st12" d="M158.57,205.4l34.7,20.04c0.43,0.25,0.43,0.65,0,0.9l-6.01,3.47c-0.43,0.25-1.13,0.25-1.56,0L151,209.77
					L158.57,205.4z"/>
				<path d="M225.32,248.31l5.56,3.21c0.33,0.19,0.29,0.52-0.09,0.74l-2.41,1.39c-0.38,0.22-0.95,0.24-1.28,0.05l-5.56-3.21
					c-0.33-0.19-0.29-0.52,0.09-0.74l2.41-1.39C224.42,248.14,224.99,248.12,225.32,248.31z"/>
				<path d="M217.55,243.82l5.56,3.21c0.33,0.19,0.29,0.52-0.09,0.74l-2.41,1.39c-0.38,0.22-0.95,0.24-1.28,0.05l-5.56-3.21
					c-0.33-0.19-0.29-0.52,0.09-0.74l2.41-1.39C216.65,243.65,217.22,243.63,217.55,243.82z"/>
				<path d="M209.84,239.37l5.56,3.21c0.33,0.19,0.29,0.52-0.09,0.74l-2.41,1.39c-0.38,0.22-0.95,0.24-1.28,0.05l-5.56-3.21
					c-0.33-0.19-0.29-0.52,0.09-0.74l2.41-1.39C208.94,239.2,209.51,239.18,209.84,239.37z"/>
				<path d="M221.81,241.36l5.56,3.21c0.33,0.19,0.29,0.52-0.09,0.74l-2.41,1.39c-0.38,0.22-0.95,0.24-1.28,0.05l-5.56-3.21
					c-0.33-0.19-0.29-0.52,0.09-0.74l2.41-1.39C220.9,241.2,221.48,241.17,221.81,241.36z"/>
			</g>
		</g>
		<g>
			<g>
				<path class="st0" d="M230.08,131.79l-4.77-2.76c-0.44-0.26-0.81-0.95-0.82-1.54l0,0c-0.01-0.59,0.34-0.87,0.78-0.61l4.77,2.76
					c0.44,0.26,0.81,0.95,0.82,1.54l0,0C230.88,131.77,230.52,132.04,230.08,131.79z"/>
				<path class="st0" d="M241.45,138.35l-7.04-4.06c-0.44-0.26-0.81-0.95-0.82-1.54l0,0c-0.01-0.59,0.34-0.87,0.78-0.61l7.04,4.06
					c0.44,0.26,0.81,0.95,0.82,1.54l0,0C242.25,138.33,241.9,138.61,241.45,138.35z"/>
				<path class="st0" d="M227.72,157.24l-4.77-2.76c-0.44-0.26-0.81-0.95-0.82-1.54l0,0c-0.01-0.59,0.34-0.87,0.78-0.61l4.77,2.76
					c0.44,0.26,0.81,0.95,0.82,1.54l0,0C228.51,157.22,228.16,157.5,227.72,157.24z"/>
				<path class="st0" d="M237.85,163.09l-7.04-4.06c-0.44-0.26-0.81-0.95-0.82-1.54l0,0c-0.01-0.59,0.34-0.87,0.78-0.61l7.04,4.06
					c0.44,0.26,0.81,0.95,0.82,1.54l0,0C238.65,163.07,238.3,163.35,237.85,163.09z"/>
				<path class="st0" d="M216.99,128.7l-2.98-1.72c-0.44-0.26-0.81-0.95-0.82-1.54l0,0c-0.01-0.59,0.34-0.87,0.78-0.61l2.98,1.72
					c0.44,0.26,0.81,0.95,0.82,1.54l0,0C217.79,128.68,217.43,128.95,216.99,128.7z"/>
				<path class="st0" d="M227.18,139.05l-9.11-5.26c-0.44-0.26-0.81-0.95-0.82-1.54l0,0c-0.01-0.59,0.34-0.87,0.78-0.61l9.11,5.26
					c0.44,0.26,0.81,0.95,0.82,1.54l0,0C227.97,139.03,227.62,139.3,227.18,139.05z"/>
				<path class="st0" d="M221.19,144.53l-2.98-1.72c-0.44-0.26-0.81-0.95-0.82-1.54l0,0c-0.01-0.59,0.34-0.87,0.78-0.61l2.98,1.72
					c0.44,0.26,0.81,0.95,0.82,1.54l0,0C221.99,144.51,221.64,144.79,221.19,144.53z"/>
				<path class="st0" d="M241.37,174.07l-7.96-4.6c-0.44-0.26-0.81-0.95-0.82-1.54l0,0c-0.01-0.59,0.34-0.87,0.78-0.61l7.96,4.6
					c0.44,0.26,0.81,0.95,0.82,1.54l0,0C242.17,174.05,241.81,174.32,241.37,174.07z"/>
				<path class="st0" d="M220.27,152.94l-1.91-1.11c-0.44-0.26-0.81-0.95-0.82-1.54l0,0c-0.01-0.59,0.34-0.87,0.78-0.61l1.91,1.11
					c0.44,0.26,0.81,0.95,0.82,1.54l0,0C221.06,152.92,220.71,153.2,220.27,152.94z"/>
				<path class="st0" d="M220.88,162.23l-2.38-1.37c-0.44-0.26-0.81-0.95-0.82-1.54l0,0c-0.01-0.59,0.34-0.87,0.78-0.61l2.38,1.37
					c0.44,0.26,0.81,0.95,0.82,1.54l0,0C221.67,162.22,221.32,162.49,220.88,162.23z"/>
				<path class="st0" d="M230.13,167.57l-6.27-3.62c-0.44-0.26-0.81-0.95-0.82-1.54l0,0c-0.01-0.59,0.34-0.87,0.78-0.61l6.27,3.62
					c0.44,0.26,0.81,0.95,0.82,1.54l0,0C230.92,167.55,230.57,167.83,230.13,167.57z"/>
				<path class="st0" d="M223.08,167.98l-4.51-2.6c-0.44-0.26-0.81-0.95-0.82-1.54l0,0c-0.01-0.59,0.34-0.87,0.78-0.61l4.51,2.6
					c0.44,0.26,0.81,0.95,0.82,1.54l0,0C223.88,167.96,223.52,168.23,223.08,167.98z"/>
				<path class="st0" d="M248.21,178.03l-2.89-1.67c-0.44-0.26-0.81-0.95-0.82-1.54l0,0c-0.01-0.59,0.34-0.87,0.78-0.61l2.89,1.67
					c0.44,0.26,0.81,0.95,0.82,1.54l0,0C249,178.01,248.65,178.29,248.21,178.03z"/>
				<path class="st0" d="M232.29,150.94l-7.96-4.6c-0.44-0.26-0.81-0.95-0.82-1.54l0,0c-0.01-0.59,0.34-0.87,0.78-0.61l7.96,4.6
					c0.44,0.26,0.81,0.95,0.82,1.54l0,0C233.08,150.92,232.73,151.19,232.29,150.94z"/>
				<path class="st0" d="M232.02,146.31l-13.88-8.01c-0.44-0.26-0.81-0.95-0.82-1.54l0,0c-0.01-0.59,0.34-0.87,0.78-0.61l13.88,8.01
					c0.44,0.26,0.81,0.95,0.82,1.54l0,0C232.81,146.3,232.46,146.57,232.02,146.31z"/>
				<path class="st0" d="M226.25,151.92l-7.96-4.6c-0.44-0.26-0.81-0.95-0.82-1.54l0,0c-0.01-0.59,0.34-0.87,0.78-0.61l7.96,4.6
					c0.44,0.26,0.81,0.95,0.82,1.54l0,0C227.04,151.9,226.69,152.18,226.25,151.92z"/>
				<path class="st0" d="M238.33,154.43l-2.89-1.67c-0.44-0.26-0.81-0.95-0.82-1.54l0,0c-0.01-0.59,0.34-0.87,0.78-0.61l2.89,1.67
					c0.44,0.26,0.81,0.95,0.82,1.54l0,0C239.12,154.41,238.77,154.68,238.33,154.43z"/>
				<path class="st0" d="M262.92,150.75l-17.14-9.89c-0.44-0.26-0.81-0.95-0.82-1.54l0,0c-0.01-0.59,0.34-0.87,0.78-0.61l17.14,9.89
					c0.44,0.26,0.81,0.95,0.82,1.54l0,0C263.72,150.73,263.36,151,262.92,150.75z"/>
				<path class="st0" d="M228,161.88l-9.57-5.53c-0.44-0.26-0.81-0.95-0.82-1.54l0,0c-0.01-0.59,0.34-0.87,0.78-0.61l9.57,5.53
					c0.44,0.26,0.81,0.95,0.82,1.54l0,0C228.8,161.86,228.45,162.13,228,161.88z"/>
				<path class="st0" d="M220.98,126.53l-7.04-4.06c-0.44-0.26-0.81-0.95-0.82-1.54l0,0c-0.01-0.59,0.34-0.87,0.78-0.61l7.04,4.06
					c0.44,0.26,0.81,0.95,0.82,1.54l0,0C221.77,126.51,221.42,126.78,220.98,126.53z"/>
				<path class="st0" d="M222.82,172.3l-8.15-4.71c-0.44-0.26-0.81-0.95-0.82-1.54l0,0c-0.01-0.59,0.34-0.87,0.78-0.61l8.15,4.71
					c0.44,0.26,0.81,0.95,0.82,1.54l0,0C223.61,172.28,223.26,172.55,222.82,172.3z"/>
			</g>
		</g>
	</g>
	<g>
		<g>
			<path class="st0" d="M14.38,179.38l41.99-24.45c8.32-4.8,16.16-5.56,22.09-2.14c5.92,3.42,9.19,10.6,9.19,20.2v3.08
				c-0.3,0.2-0.61,0.4-0.93,0.59v-3.67c0-9.26-3.1-16.15-8.73-19.4c-5.63-3.25-13.14-2.49-21.16,2.14l-41.99,24.45
				c-0.22,0.13-0.5,0.05-0.63-0.17C14.08,179.79,14.16,179.51,14.38,179.38z"/>
			<path class="st0" d="M145.33,150.26V55.63c0-18.94,13.35-42.06,29.75-51.53c8.03-4.64,15.61-5.37,21.34-2.07
				c5.72,3.3,8.88,10.23,8.88,19.51v6.6c-0.31,0.31-0.62,0.62-0.93,0.93v-7.52c0-8.93-2.99-15.58-8.41-18.71
				c-5.43-3.13-12.67-2.4-20.41,2.07c-16.15,9.32-29.29,32.08-29.29,50.73v94.63c0,15.7-9.24,34.28-21.77,45.46
				c0-0.41,0-0.83,0-1.24C136.52,183.42,145.33,165.47,145.33,150.26z"/>
			<path class="st14" d="M205.29,31.04L205.29,31.04c1.52-1.44,8.61-7.7,18.96-9.28c11.72-1.79,16.56,11.91,16.56,11.91
				s1.36,7.12,1.31,11.33c-0.05,4.21-0.35,19.51-0.35,19.51l-37.14-21.4l0-0.01c-0.15-0.08-0.25-0.23-0.25-0.41V31.84
				C204.67,31.53,204.98,31.35,205.29,31.04z"/>
		</g>
		<g>
			<g>
				<path class="st10" d="M231.62,22.33l-35.21-20.3l0.14,0.51c-5.43-3.5-13.63-3.88-24.6,4.16c-21.79,15.98-24.4,38.22-25.52,42.39
					c-1.11,4.17-0.65,30.58-0.65,30.58s-0.07,63.69-0.15,71.1c-0.07,7.41-2.23,15.72-6.39,24.69c-4.16,8.97-14.85,19.86-14.85,19.86
					v12.96c1.71,14.02,7.66,17.29,16.52,18.08c7.15,0.64,14.77-4.52,20.86-10.15c-0.22,0.23-0.37,0.38-0.37,0.38v12.96
					c1.71,14.02,7.66,17.29,16.52,18.08c8.86,0.8,18.44-7.32,24.94-14.19c6.49-6.87,11.97-17.36,15.01-26.82
					c3.04-9.46,2.03-21.69,2.03-21.69s0.07-69.62,0.15-83.35c0.07-13.73,0.51-11.33,5.01-25.13c4.5-13.8,16.44-23.46,16.44-23.46
					l28.64-8.53L231.62,22.33z"/>
				<path class="st14" d="M170.33,246.49c-0.48-0.66-6.76-4.86-8.35-12.27c-0.89-4.12-0.8-10.39-0.8-10.39s0.03-3.48,0.11-6.65
					c0.07-0.06,0.14-0.12,0.21-0.18c0-0.41,0-0.83,0-1.24c-0.06,0.05-0.12,0.1-0.17,0.15c0.02-0.71,0.05-1.39,0.08-1.96
					c0.18-3.29-2.25-10.31-2.25-10.31s-3.45-9.41-13.73-9.77c-9.12-0.32-18.73,6.24-20.77,7.72v-4.25
					c-0.14,0.09-0.28,0.18-0.42,0.27c0.01-0.57,0.02-1.15,0.04-1.72c0.07-0.06,0.14-0.12,0.21-0.18c0-0.41,0-0.83,0-1.24
					c-0.06,0.05-0.12,0.1-0.17,0.15c0.02-0.71,0.05-1.39,0.08-1.96c0.18-3.29-2.25-10.31-2.25-10.31s-3.45-9.41-13.73-9.77
					c-9.12-0.32-18.73,6.24-20.77,7.72v-4.25c-0.3,0.2-0.61,0.4-0.93,0.59v7.44c0,9.01,3,15.78,8.45,19.14l0.02,0.03l0.19,0.11
					c0.05,0.03,0.1,0.07,0.15,0.1c0.03,0.02,0.07,0.03,0.1,0.05l37.68,21.69c-0.01-0.01-0.03-0.04-0.05-0.05L170.33,246.49z"/>
				<g>
					<path class="st10" d="M115.47,174.08c0,0-0.28-0.15-0.78-0.35c-0.15-0.07-0.3-0.16-0.46-0.23l-35.78-20.71
						c0,0-6.57-3.45-14.52-0.54c-7.95,2.91-49.61,27.9-49.61,27.9l37.22,21.44l0.01,0c0.03,0.02,0.07,0.02,0.1,0.03l36.91,21.26
						c0,0,20.88-12.94,35.32-21.28l0.93-0.53c5.91-3.4,10.6-5.93,12.07-6.32c8.91-2.36,15.1,0.52,16.72,1.4L115.47,174.08z"/>
					<path class="st0" d="M153.59,196.14l0.43,0.25C154.02,196.39,153.86,196.29,153.59,196.14z"/>
				</g>
			</g>
			<path class="st14" d="M242.3,52.33L242.3,52.33c1.52-1.44,8.61-7.7,18.96-9.28c11.72-1.79,16.56,11.91,16.56,11.91
				s1.36,7.12,1.31,11.33c-0.05,4.21-0.35,19.51-0.35,19.51l-37.14-21.4l0-0.01c-0.15-0.08-0.25-0.23-0.25-0.41V53.13
				C241.69,52.82,241.99,52.64,242.3,52.33z"/>
			<g>
				<path d="M177.57,248.18c4.1,0,8.63-1.37,13.32-4.08c16.29-9.4,29.53-32.35,29.53-51.15V98.32c0-18.65,13.14-41.4,29.29-50.73
					c7.74-4.46,14.98-5.2,20.41-2.07c5.43,3.13,8.41,9.78,8.41,18.71v21.15c0,0.26,0.21,0.46,0.46,0.46c0.26,0,0.46-0.21,0.46-0.46
					V64.24c0-9.28-3.15-16.21-8.88-19.51c-5.73-3.31-13.3-2.57-21.34,2.07c-16.4,9.47-29.75,32.59-29.75,51.53v94.63
					c0,18.51-13.04,41.1-29.07,50.35c-7.68,4.43-14.87,5.16-20.26,2.05c-5.39-3.11-8.35-9.7-8.35-18.57v-11.1
					c0-9.6-3.26-16.78-9.19-20.2c-5.93-3.42-13.77-2.66-22.09,2.14l-41.99,24.45c-0.22,0.13-0.3,0.41-0.17,0.63
					c0.13,0.22,0.41,0.29,0.63,0.17L131,198.43c8.02-4.63,15.54-5.39,21.16-2.14c5.63,3.25,8.73,10.14,8.73,19.4v11.1
					c0,9.21,3.13,16.09,8.81,19.37C172.05,247.51,174.7,248.18,177.57,248.18z"/>
			</g>
		</g>
		<path class="st11" d="M180.47,121.51l-6.21-3.58c-0.58-0.33-1.05-1.23-1.07-2l0,0c-0.01-0.77,0.44-1.13,1.02-0.8l6.21,3.58
			c0.58,0.33,1.05,1.23,1.07,2l0,0C181.5,121.49,181.04,121.85,180.47,121.51z"/>
		<path class="st11" d="M193.65,129.12l-9.15-5.28c-0.58-0.33-1.05-1.23-1.07-2l0,0c-0.01-0.77,0.44-1.13,1.02-0.8l9.15,5.28
			c0.58,0.33,1.05,1.23,1.07,2l0,0C194.68,129.1,194.22,129.46,193.65,129.12z"/>
		<path class="st11" d="M179.77,97.86l-11.85-6.84c-0.58-0.33-1.05-1.23-1.07-2l0,0c-0.01-0.77,0.44-1.13,1.02-0.8l11.85,6.84
			c0.58,0.33,1.05,1.23,1.07,2l0,0C180.8,97.83,180.34,98.19,179.77,97.86z"/>
		<path class="st11" d="M171.99,104.99l-3.88-2.24c-0.58-0.33-1.05-1.23-1.07-2l0,0c-0.01-0.77,0.44-1.13,1.02-0.8l3.88,2.24
			c0.58,0.33,1.05,1.23,1.07,2l0,0C173.02,104.97,172.56,105.32,171.99,104.99z"/>
		<path class="st11" d="M170.79,115.92l-2.49-1.44c-0.58-0.33-1.05-1.23-1.07-2l0,0c-0.01-0.77,0.44-1.13,1.02-0.8l2.49,1.44
			c0.58,0.33,1.05,1.23,1.07,2l0,0C171.82,115.9,171.36,116.26,170.79,115.92z"/>
		<path class="st11" d="M186.41,113.32l-10.36-5.98c-0.58-0.33-1.05-1.23-1.07-2l0,0c-0.01-0.77,0.44-1.13,1.02-0.8l10.36,5.98
			c0.58,0.33,1.05,1.23,1.07,2l0,0C187.44,113.29,186.99,113.65,186.41,113.32z"/>
		<path class="st11" d="M186.06,107.31l-18.05-10.42c-0.58-0.33-1.05-1.23-1.07-2l0,0c-0.01-0.77,0.44-1.13,1.02-0.8l18.05,10.42
			c0.58,0.33,1.05,1.23,1.07,2l0,0C187.1,107.28,186.64,107.64,186.06,107.31z"/>
		<path class="st11" d="M178.56,114.6l-10.36-5.98c-0.58-0.33-1.05-1.23-1.07-2l0,0c-0.01-0.77,0.44-1.13,1.02-0.8l10.36,5.98
			c0.58,0.33,1.05,1.23,1.07,2l0,0C179.59,114.57,179.14,114.93,178.56,114.6z"/>
		<path class="st11" d="M194.27,117.85l-3.76-2.17c-0.58-0.33-1.05-1.23-1.07-2l0,0c-0.01-0.77,0.44-1.13,1.02-0.8l3.76,2.17
			c0.58,0.33,1.05,1.23,1.07,2l0,0C195.3,117.83,194.84,118.19,194.27,117.85z"/>
		<g>
			<path class="st14" d="M183.54,88.41l-6.21-3.58c-0.58-0.33-1.05-1.23-1.07-2l0,0c-0.01-0.77,0.44-1.13,1.02-0.8l6.21,3.58
				c0.58,0.33,1.05,1.23,1.07,2l0,0C184.58,88.39,184.12,88.74,183.54,88.41z"/>
			<path class="st14" d="M198.33,96.95l-9.15-5.28c-0.58-0.33-1.05-1.23-1.07-2l0,0c-0.01-0.77,0.44-1.13,1.02-0.8l9.15,5.28
				c0.58,0.33,1.05,1.23,1.07,2l0,0C199.36,96.92,198.91,97.28,198.33,96.95z"/>
			<path class="st14" d="M180.47,121.51l-6.21-3.58c-0.58-0.33-1.05-1.23-1.07-2l0,0c-0.01-0.77,0.44-1.13,1.02-0.8l6.21,3.58
				c0.58,0.33,1.05,1.23,1.07,2l0,0C181.5,121.49,181.04,121.85,180.47,121.51z"/>
			<path class="st14" d="M193.65,129.12l-9.15-5.28c-0.58-0.33-1.05-1.23-1.07-2l0,0c-0.01-0.77,0.44-1.13,1.02-0.8l9.15,5.28
				c0.58,0.33,1.05,1.23,1.07,2l0,0C194.68,129.1,194.22,129.46,193.65,129.12z"/>
			<path class="st14" d="M166.52,84.4l-3.88-2.24c-0.58-0.33-1.05-1.23-1.07-2l0,0c-0.01-0.77,0.44-1.13,1.02-0.8l3.88,2.24
				c0.58,0.33,1.05,1.23,1.07,2l0,0C167.56,84.37,167.1,84.73,166.52,84.4z"/>
			<path class="st14" d="M179.77,97.86l-11.85-6.84c-0.58-0.33-1.05-1.23-1.07-2l0,0c-0.01-0.77,0.44-1.13,1.02-0.8l11.85,6.84
				c0.58,0.33,1.05,1.23,1.07,2l0,0C180.8,97.83,180.34,98.19,179.77,97.86z"/>
			<path class="st14" d="M171.99,104.99l-3.88-2.24c-0.58-0.33-1.05-1.23-1.07-2l0,0c-0.01-0.77,0.44-1.13,1.02-0.8l3.88,2.24
				c0.58,0.33,1.05,1.23,1.07,2l0,0C173.02,104.97,172.56,105.32,171.99,104.99z"/>
			<path class="st14" d="M198.23,143.39l-10.36-5.98c-0.58-0.33-1.05-1.23-1.07-2l0,0c-0.01-0.77,0.44-1.13,1.02-0.8l10.36,5.98
				c0.58,0.33,1.05,1.23,1.07,2l0,0C199.26,143.37,198.8,143.72,198.23,143.39z"/>
			<path class="st14" d="M170.79,115.92l-2.49-1.44c-0.58-0.33-1.05-1.23-1.07-2l0,0c-0.01-0.77,0.44-1.13,1.02-0.8l2.49,1.44
				c0.58,0.33,1.05,1.23,1.07,2l0,0C171.82,115.9,171.36,116.26,170.79,115.92z"/>
			<path class="st14" d="M171.58,128.01l-3.09-1.78c-0.58-0.33-1.05-1.23-1.07-2l0,0c-0.01-0.77,0.44-1.13,1.02-0.8l3.09,1.78
				c0.58,0.33,1.05,1.23,1.07,2l0,0C172.61,127.98,172.15,128.34,171.58,128.01z"/>
			<path class="st14" d="M183.6,134.95l-8.15-4.71c-0.58-0.33-1.05-1.23-1.07-2l0,0c-0.01-0.77,0.44-1.13,1.02-0.8l8.15,4.71
				c0.58,0.33,1.05,1.23,1.07,2l0,0C184.64,134.93,184.18,135.28,183.6,134.95z"/>
			<path class="st14" d="M174.44,135.47l-5.86-3.38c-0.58-0.33-1.05-1.23-1.07-2l0,0c-0.01-0.77,0.44-1.13,1.02-0.8l5.86,3.38
				c0.58,0.33,1.05,1.23,1.07,2l0,0C175.48,135.45,175.02,135.81,174.44,135.47z"/>
			<path class="st14" d="M186.41,113.32l-10.36-5.98c-0.58-0.33-1.05-1.23-1.07-2l0,0c-0.01-0.77,0.44-1.13,1.02-0.8l10.36,5.98
				c0.58,0.33,1.05,1.23,1.07,2l0,0C187.44,113.29,186.99,113.65,186.41,113.32z"/>
			<path class="st14" d="M186.06,107.31l-18.05-10.42c-0.58-0.33-1.05-1.23-1.07-2l0,0c-0.01-0.77,0.44-1.13,1.02-0.8l18.05,10.42
				c0.58,0.33,1.05,1.23,1.07,2l0,0C187.1,107.28,186.64,107.64,186.06,107.31z"/>
			<path class="st14" d="M178.56,114.6l-10.36-5.98c-0.58-0.33-1.05-1.23-1.07-2l0,0c-0.01-0.77,0.44-1.13,1.02-0.8l10.36,5.98
				c0.58,0.33,1.05,1.23,1.07,2l0,0C179.59,114.57,179.14,114.93,178.56,114.6z"/>
			<path class="st14" d="M194.27,117.85l-3.76-2.17c-0.58-0.33-1.05-1.23-1.07-2l0,0c-0.01-0.77,0.44-1.13,1.02-0.8l3.76,2.17
				c0.58,0.33,1.05,1.23,1.07,2l0,0C195.3,117.83,194.84,118.19,194.27,117.85z"/>
			<path class="st14" d="M180.84,127.54l-12.45-7.19c-0.58-0.33-1.05-1.23-1.07-2l0,0c-0.01-0.77,0.44-1.13,1.02-0.8l12.45,7.19
				c0.58,0.33,1.05,1.23,1.07,2l0,0C181.88,127.52,181.42,127.88,180.84,127.54z"/>
			<path class="st14" d="M171.7,81.58l-9.15-5.28c-0.58-0.33-1.05-1.23-1.07-2l0,0c-0.01-0.77,0.44-1.13,1.02-0.8l9.15,5.28
				c0.58,0.33,1.05,1.23,1.07,2l0,0C172.74,81.55,172.28,81.91,171.7,81.58z"/>
			<path class="st14" d="M174.1,141.09l-10.6-6.12c-0.58-0.33-1.05-1.23-1.07-2l0,0c-0.01-0.77,0.44-1.13,1.02-0.8l10.6,6.12
				c0.58,0.33,1.05,1.23,1.07,2l0,0C175.13,141.07,174.68,141.42,174.1,141.09z"/>
		</g>
		<path class="st14" d="M179.01,177.2l-6.21-3.58c-0.58-0.33-1.05-1.23-1.07-2l0,0c-0.01-0.77,0.44-1.13,1.02-0.8l6.21,3.58
			c0.58,0.33,1.05,1.23,1.07,2l0,0C180.04,177.17,179.59,177.53,179.01,177.2z"/>
		<path class="st14" d="M192.19,184.81l-9.15-5.28c-0.58-0.33-1.05-1.23-1.07-2l0,0c-0.01-0.77,0.44-1.13,1.02-0.8l9.15,5.28
			c0.58,0.33,1.05,1.23,1.07,2l0,0C193.22,184.78,192.77,185.14,192.19,184.81z"/>
		<path class="st14" d="M178.31,153.54l-11.85-6.84c-0.58-0.33-1.05-1.23-1.07-2l0,0c-0.01-0.77,0.44-1.13,1.02-0.8l11.85,6.84
			c0.58,0.33,1.05,1.23,1.07,2l0,0C179.34,153.52,178.88,153.87,178.31,153.54z"/>
		<path class="st14" d="M170.53,160.67l-3.88-2.24c-0.58-0.33-1.05-1.23-1.07-2v0c-0.01-0.77,0.44-1.13,1.02-0.8l3.88,2.24
			c0.58,0.33,1.05,1.23,1.07,2l0,0C171.56,160.65,171.1,161.01,170.53,160.67z"/>
		<path class="st14" d="M169.33,171.61l-2.49-1.44c-0.58-0.33-1.05-1.23-1.07-2l0,0c-0.01-0.77,0.44-1.13,1.02-0.8l2.49,1.44
			c0.58,0.33,1.05,1.23,1.07,2l0,0C170.36,171.58,169.9,171.94,169.33,171.61z"/>
		<path class="st14" d="M184.95,169l-10.36-5.98c-0.58-0.33-1.05-1.23-1.07-2l0,0c-0.01-0.77,0.44-1.13,1.02-0.8l10.36,5.98
			c0.58,0.33,1.05,1.23,1.07,2v0C185.98,168.98,185.53,169.34,184.95,169z"/>
		<path class="st14" d="M184.6,162.99l-18.05-10.42c-0.58-0.33-1.05-1.23-1.07-2l0,0c-0.01-0.77,0.44-1.13,1.02-0.8l18.05,10.42
			c0.58,0.33,1.05,1.23,1.07,2l0,0C185.64,162.97,185.18,163.32,184.6,162.99z"/>
		<path class="st14" d="M177.1,170.28l-10.36-5.98c-0.58-0.33-1.05-1.23-1.07-2l0,0c-0.01-0.77,0.44-1.13,1.02-0.8l10.36,5.98
			c0.58,0.33,1.05,1.23,1.07,2l0,0C178.13,170.26,177.68,170.62,177.1,170.28z"/>
		<path class="st14" d="M192.81,173.54l-3.76-2.17c-0.58-0.33-1.05-1.23-1.07-2l0,0c-0.01-0.77,0.44-1.13,1.02-0.8l3.76,2.17
			c0.58,0.33,1.05,1.23,1.07,2l0,0C193.84,173.51,193.38,173.87,192.81,173.54z"/>
	</g>
	<g>
		<g>
			<g>
				<path d="M60.83,240.4c0,0-3.55-1.79-5.73,0.88c-2.18,2.66-5.29,8.96-5.39,13.21c-0.1,4.25,3.36,3.96,5.42,2.96
					c2.06-1.01,8.07-9.72,8.43-11.43c0.36-1.71-0.43-4.02-1.01-4.47C61.97,241.09,60.83,240.4,60.83,240.4z"/>
				<path class="st0" d="M61.6,239.54l0.16,3.68c0.03,0.78-0.36,1.53-1.04,1.91c-0.62,0.35-1.52,0.62-2.74,0.43
					c-2.67-0.43-2.91-1.19-3.1-4.87C54.69,237.01,61.6,239.54,61.6,239.54z"/>
				<g>
					<path d="M47.84,233.33c0,0-3.55-1.79-5.73,0.88c-2.18,2.66-5.29,8.96-5.39,13.21c-0.1,4.25,3.36,3.96,5.42,2.96
						c2.06-1.01,8.07-9.72,8.43-11.43c0.36-1.71-0.43-4.02-1.01-4.47C48.98,234.02,47.84,233.33,47.84,233.33z"/>
					<path class="st0" d="M48.61,232.47l0.16,3.68c0.03,0.78-0.36,1.53-1.04,1.91c-0.62,0.35-1.52,0.62-2.74,0.43
						c-2.67-0.43-2.91-1.19-3.1-4.87C41.7,229.94,48.61,232.47,48.61,232.47z"/>
					<path d="M80.28,164.97c-1.05-17.09-18.51,2.51-18.51,2.51L49.82,179.2l-10.76,11.82c-2.1,2.31-3.08,5.43-2.67,8.52l4.35,33.14
						c0.21,1.64,1.62,2.84,3.27,2.83c0.47,0,1-0.05,1.61-0.14c3.88-0.6,3.6-4.3,3.6-4.3l-0.8-31l22.6-13.62
						C71.02,186.46,81.33,182.06,80.28,164.97z"/>
				</g>
				<path d="M93.27,171.48C92.22,154.39,74.76,174,74.76,174l-11.95,11.71l-10.76,11.82c-2.1,2.31-3.08,5.43-2.67,8.52l4.35,33.14
					c0.21,1.64,1.62,2.84,3.27,2.83c0.47,0,1-0.05,1.61-0.14c3.88-0.6,3.6-4.3,3.6-4.3l-0.8-31l22.6-13.62
					C84.01,192.97,94.32,188.57,93.27,171.48z"/>
				<path class="st14" d="M82.94,116.62c13.24,5.49,12.97,13.31,12.97,13.31s-2.59,28.68-1.71,47.84
					c0.37,8.01-42.55,8.62-36.15-12.75c7.55-25.19,4.72-45.58,8.25-48.66C69.84,113.3,79.52,115.2,82.94,116.62z"/>
				<path class="st15" d="M87.2,123.56c-0.69,2.69-4.21,4.1-7.86,3.16c-3.65-0.94-6.05-3.88-5.36-6.57c0.69-2.69,4.21-4.1,7.86-3.16
					C85.49,117.93,87.89,120.87,87.2,123.56z"/>
				<path class="st10" d="M81.57,127.65c-0.78,0-1.58-0.1-2.39-0.31c-1.9-0.49-3.54-1.5-4.64-2.84c-1.14-1.4-1.56-3-1.17-4.5
					c0.78-3.02,4.65-4.65,8.63-3.62c1.9,0.49,3.54,1.5,4.64,2.84c1.14,1.4,1.56,3,1.17,4.5l0,0
					C87.19,126.13,84.61,127.65,81.57,127.65z M79.57,117.33c-2.46,0-4.51,1.14-4.99,2.98c-0.28,1.1,0.05,2.3,0.93,3.38
					c0.93,1.14,2.34,2,3.98,2.42c3.3,0.85,6.49-0.36,7.09-2.71l0,0c0.28-1.1-0.05-2.3-0.93-3.38c-0.93-1.14-2.34-2-3.98-2.42
					C80.97,117.42,80.25,117.33,79.57,117.33z"/>
				<path class="st15" d="M77.63,116.03c0,0,0.11,0.53-0.11,4.73c-0.07,1.32,4.54,2.55,5.74,1.36c1.19-1.19,0.72-2.43,1-6.92
					C84.54,110.7,77.63,116.03,77.63,116.03z"/>
				<path class="st16" d="M84.26,115.19c0,0-1.14,4.16-6.74,5.76l0.09-3.78L84.26,115.19z"/>
				
					<ellipse transform="matrix(0.5023 -0.8647 0.8647 0.5023 -53.8736 120.7276)" class="st15" cx="77.95" cy="107.17" rx="10.19" ry="10.19"/>
				<path class="st16" d="M80.28,107.54c0,0-5.61,2.4-9.49,2.43c-3.88,0.03-3.03-3.23-3.03-3.23l11.53-1.67L80.28,107.54z"/>
				<path d="M69.63,108.17c0,0,4.89-2.07,9.17-1.21c1.01,0.2,1.94,0.74,2.59,1.54c0.21,0.26,0.48,0.5,0.78,0.57
					c0.76,0.17,2-2.98,3.48-3.05s2.46,0.97,1.25,2.91c-1.21,1.94-0.8,4.11-0.24,4.42c0.56,0.31,6.47-4.22,1.25-14.55
					c-5.22-10.33-18.46-4.77-20.52-2.67c0,0-2.17,1.89-3.94,0.21C63.47,96.34,61.49,111.16,69.63,108.17z"/>
				<path class="st15" d="M88.48,150.89v7.75c0,0.89-0.37,1.74-1.03,2.33l-15.92,14.52l1.81,2.77l21.03-15.25
					c0.98-0.71,1.61-1.81,1.74-3.01l1.42-13.52L88.48,150.89z"/>
				<path class="st14" d="M94.79,126.06c0,0,4.83,7.26,6.63,26.39c0,0-8.25,2.67-12.93,1.15C83.8,152.08,94.79,126.06,94.79,126.06z
					"/>
				<path d="M87.6,135.24c0,0-1.89,10.12-2,14.88c-0.03,1.31,0.77,2.49,2,2.93l0,0V135.24z"/>
			</g>
			<g>
				<path class="st17" d="M83.47,185.57l-3.52-0.46l-22.72-13.12c-0.73-0.42-2-0.37-2.84,0.12l-16.1,9.29l-2.13-0.28v2.12l0,0
					c-0.01,0.28,0.15,0.55,0.49,0.75l25.74,14.86c0.73,0.42,2,0.37,2.84-0.12l17.53-10.12c0.47-0.27,0.71-0.63,0.7-0.96l0,0V185.57z
					"/>
				<path d="M66.4,177.28l-1.61-0.93H47.05l-8.75,5.05l-2.13-0.28v2.12l0,0c-0.01,0.28,0.15,0.55,0.49,0.75l25.74,14.86
					c0.38,0.22,0.92,0.31,1.47,0.27L66.4,177.28z"/>
				<path class="st11" d="M37.12,181.24l-0.94-0.12v2.12l0,0c-0.01,0.28,0.15,0.55,0.49,0.75l0.45,0.26V181.24z"/>
				<path class="st17" d="M62.66,198.96c0.69,0.26,1.68,0.2,2.41-0.15v-3.6h-2.41V198.96z"/>
				<path class="st10" d="M62.41,196.73l-25.74-14.86c-0.73-0.42-0.64-1.15,0.2-1.64l17.53-10.12c0.84-0.49,2.11-0.54,2.84-0.12
					l25.74,14.86c0.73,0.42,0.64,1.15-0.2,1.64l-17.53,10.12C64.41,197.09,63.13,197.15,62.41,196.73z"/>
				<path class="st9" d="M61.97,194.47l-21.41-12.36c-0.61-0.35-0.53-0.96,0.17-1.36l9.39-5.28c0.7-0.4,1.76-0.45,2.36-0.1
					l21.41,12.36c0.61,0.35,0.53,0.96-0.17,1.36l-9.39,5.28C63.63,194.78,62.58,194.82,61.97,194.47z"/>
			</g>
			<path class="st15" d="M55.39,169.62l-0.27,1.78c-0.23,1.51-0.19,3.05,0.12,4.55l0.32,1.57c0.18,0.88,0.88,1.57,1.76,1.73l0,0
				c0.69,0.13,1.35-0.36,1.42-1.06l0.42-3.8c0,0,0.97,1.27,1.44,1.27c0.47,0-0.52-3.8-1.59-5.96
				C57.96,167.55,55.39,169.62,55.39,169.62z"/>
			<path class="st15" d="M64.12,141.39l-2.76,5.47c-0.65,1.29-1.04,2.7-1.13,4.15l-1.2,18.7l-3.63-0.09l-1.65-21
				c-0.05-0.65-0.02-1.3,0.09-1.94l1.88-10.65L64.12,141.39z"/>
			<g>
				<path d="M61.53,198.15l-2.16-2.82l-22.7-13.14c-0.73-0.42-1.32-1.55-1.32-2.52l0.02-18.58l-1.31-1.7l1.23-0.71l0,0
					c0.23-0.15,0.55-0.15,0.89,0.05l25.73,14.89c0.73,0.42,1.32,1.55,1.32,2.52l-0.02,20.24c0,0.55-0.19,0.93-0.48,1.08l0,0
					L61.53,198.15z"/>
				<path d="M45.84,187.5l-1.61-0.93l-8.85-15.38l0.01-10.1l-1.31-1.7l1.23-0.71l0,0c0.23-0.15,0.55-0.15,0.89,0.05l25.73,14.89
					c0.38,0.22,0.73,0.64,0.97,1.13L45.84,187.5z"/>
				<path d="M34.65,160.14l-0.58-0.76l1.23-0.71l0,0c0.23-0.15,0.55-0.15,0.89,0.05l0.45,0.26L34.65,160.14z"/>
				<path d="M62.15,173.79c0.57,0.47,1.01,1.35,1.07,2.17l-2.51,1.45l-1.2-2.09L62.15,173.79z"/>
				<path class="st14" d="M60.69,174.33l-25.73-14.89c-0.73-0.42-1.32,0.02-1.32,1l-0.02,20.24c0,0.97,0.59,2.1,1.32,2.52
					l25.73,14.89c0.73,0.42,1.32-0.02,1.32-1l0.02-20.24C62.01,175.88,61.42,174.75,60.69,174.33z"/>
			</g>
			<path class="st15" d="M73.34,178.26l-0.41,0.85c-0.47,0.98-1.22,1.81-2.15,2.38l-2.56,1.58c-0.79,0.49-1.8,0.53-2.61,0.06
				c-0.03-0.02-0.06-0.03-0.09-0.05c-0.81-0.51-0.89-1.67-0.22-2.36l2.67-2.75c0,0-1.5,1.15-1.92,0.69
				c-0.31-0.34,1.45-1.99,2.81-2.05c1.35-0.05,2.66-1.12,2.66-1.12L73.34,178.26z"/>
			<path class="st14" d="M66.57,116.33c0,0-9.79,10.65-13.74,20.42c0,0,3.35,6.03,11.54,8.4C72.57,147.52,66.57,116.33,66.57,116.33
				z"/>
			<path d="M62.53,144.52l1.59-15.33l-3.74,14.36C61.04,143.9,61.77,144.22,62.53,144.52z"/>
			<path class="st10" d="M73.9,114.18l-2.63-0.72c0,0,1.26,1.98,3.09,2.48c1.83,0.5,2.12-1.05,2.12-1.05L73.9,114.18z"/>
		</g>
		<path class="st10" d="M87.95,109.97c0,0.81-0.66,1.47-1.47,1.47s-1.47-0.66-1.47-1.47c0-0.81,0.66-1.47,1.47-1.47
			S87.95,109.16,87.95,109.97z"/>
	</g>
</g>
</svg>
